<svg width="24" height="12" viewBox="0 0 24 12" fill="none" xmlns="http://www.w3.org/2000/svg">
<path d="M0.804 8C0.804 7.872 0.82 7.772 0.852 7.7C0.892 7.628 0.94 7.584 0.996 7.568L1.824 7.352L1.632 7.544V0.775999L1.8 0.98L0.828 0.752C0.828 0.64 0.84 0.552 0.864 0.487999C0.896 0.415999 0.952 0.355999 1.032 0.308H4.104C4.64 0.308 5.088 0.404 5.448 0.595999C5.816 0.779999 6.092 1.032 6.276 1.352C6.46 1.672 6.552 2.024 6.552 2.408C6.552 2.84 6.436 3.248 6.204 3.632C5.972 4.008 5.64 4.316 5.208 4.556C4.784 4.796 4.272 4.916 3.672 4.916C3.472 4.916 3.26 4.904 3.036 4.88C2.812 4.848 2.608 4.804 2.424 4.748H2.628V7.604L2.4 7.328L3.564 7.556C3.564 7.676 3.548 7.768 3.516 7.832C3.492 7.896 3.436 7.952 3.348 8H0.804ZM2.628 4.388L2.448 4.184C2.56 4.24 2.732 4.284 2.964 4.316C3.204 4.34 3.436 4.352 3.66 4.352C4.068 4.352 4.404 4.272 4.668 4.112C4.932 3.944 5.128 3.724 5.256 3.452C5.392 3.18 5.46 2.884 5.46 2.564C5.46 2.012 5.304 1.588 4.992 1.292C4.688 0.988 4.26 0.836 3.708 0.836C3.468 0.836 3.24 0.852 3.024 0.883999C2.808 0.915999 2.62 0.951999 2.46 0.991999L2.628 0.823999V4.388ZM7.60781 8C7.60781 7.744 7.67181 7.6 7.79981 7.568L8.51981 7.34L8.38781 7.508V3.044L8.53181 3.224L7.78781 3.092C7.66781 3.076 7.60781 2.936 7.60781 2.672C7.87981 2.632 8.10381 2.604 8.27981 2.588C8.46381 2.564 8.64381 2.552 8.81981 2.552C9.18781 2.552 9.37181 2.78 9.37181 3.236V7.484L9.22781 7.328L10.1878 7.556C10.1878 7.676 10.1718 7.768 10.1398 7.832C10.1158 7.888 10.0598 7.944 9.97181 8H7.60781ZM8.83181 1.364C8.63981 1.364 8.49181 1.312 8.38781 1.208C8.28381 1.096 8.23181 0.951999 8.23181 0.775999C8.23181 0.6 8.29181 0.456 8.41181 0.344C8.53981 0.232 8.67981 0.176 8.83181 0.176C9.02381 0.176 9.17181 0.232 9.27581 0.344C9.38781 0.448 9.44381 0.592 9.44381 0.775999C9.44381 0.944 9.37981 1.084 9.25181 1.196C9.13181 1.308 8.99181 1.364 8.83181 1.364ZM11.2641 8C11.2641 7.744 11.3281 7.6 11.4561 7.568L12.1401 7.34L12.0081 7.544V3.092L12.1521 3.272L11.4441 3.14C11.3241 3.116 11.2641 2.976 11.2641 2.72C11.5681 2.672 11.7961 2.64 11.9481 2.624C12.1081 2.6 12.2401 2.588 12.3441 2.588C12.5521 2.588 12.7001 2.64 12.7881 2.744C12.8761 2.848 12.9201 3.016 12.9201 3.248V3.692L12.8481 3.656H12.9801C13.3001 3.288 13.6641 2.996 14.0721 2.78C14.4881 2.564 14.8921 2.456 15.2841 2.456C16.2121 2.456 16.6761 3.1 16.6761 4.388V7.484L16.5321 7.328L17.4201 7.556C17.4201 7.676 17.4081 7.768 17.3841 7.832C17.3601 7.888 17.3081 7.944 17.2281 8H15.0561C15.0561 7.744 15.1201 7.6 15.2481 7.568L15.8361 7.388L15.7161 7.592V4.412C15.7161 3.564 15.3961 3.14 14.7561 3.14C14.5161 3.14 14.2761 3.188 14.0361 3.284C13.8041 3.372 13.5881 3.496 13.3881 3.656C13.1881 3.808 13.0201 3.976 12.8841 4.16L12.9801 3.932V7.532L12.8361 7.364L13.6521 7.556C13.6521 7.676 13.6361 7.768 13.6041 7.832C13.5801 7.888 13.5241 7.944 13.4361 8H11.2641ZM20.6082 11.24C19.8962 11.24 19.3242 11.084 18.8922 10.772C18.4602 10.468 18.2442 10.064 18.2442 9.56C18.2442 9.216 18.4082 9.044 18.7362 9.044C18.8242 9.044 18.9082 9.052 18.9882 9.068C19.0682 9.092 19.1442 9.128 19.2162 9.176C19.2162 9.72 19.3482 10.132 19.6122 10.412C19.8842 10.7 20.2762 10.844 20.7882 10.844C21.3082 10.844 21.7242 10.72 22.0362 10.472C22.3562 10.224 22.5162 9.9 22.5162 9.5C22.5162 9.244 22.4642 9.04 22.3602 8.888C22.2562 8.736 22.0722 8.62 21.8082 8.54C21.5442 8.468 21.1722 8.412 20.6922 8.372C20.0602 8.316 19.6282 8.228 19.3962 8.108C19.1642 7.988 19.0482 7.792 19.0482 7.52C19.0482 7.288 19.1242 7.06 19.2762 6.836C19.4362 6.612 19.6442 6.436 19.9002 6.308L20.0802 6.392C19.9762 6.48 19.8962 6.584 19.8402 6.704C19.7842 6.824 19.7562 6.948 19.7562 7.076C19.7562 7.204 19.7842 7.304 19.8402 7.376C19.9042 7.448 20.0282 7.504 20.2122 7.544C20.4042 7.576 20.6882 7.608 21.0642 7.64C21.8642 7.704 22.4442 7.86 22.8042 8.108C23.1722 8.356 23.3562 8.728 23.3562 9.224C23.3562 9.624 23.2402 9.976 23.0082 10.28C22.7842 10.584 22.4642 10.82 22.0482 10.988C21.6402 11.156 21.1602 11.24 20.6082 11.24ZM20.4402 6.536C19.8322 6.536 19.3402 6.36 18.9642 6.008C18.5962 5.656 18.4122 5.184 18.4122 4.592C18.4122 4.168 18.5082 3.796 18.7002 3.476C18.9002 3.156 19.1722 2.908 19.5162 2.732C19.8682 2.548 20.2722 2.456 20.7282 2.456C21.1522 2.456 21.5202 2.54 21.8322 2.708C22.1522 2.876 22.4002 3.112 22.5762 3.416C22.7602 3.712 22.8522 4.056 22.8522 4.448C22.8522 4.856 22.7482 5.216 22.5402 5.528C22.3402 5.84 22.0602 6.088 21.7002 6.272C21.3402 6.448 20.9202 6.536 20.4402 6.536ZM20.6562 6.128C21.0322 6.128 21.3362 5.988 21.5682 5.708C21.8002 5.428 21.9162 5.06 21.9162 4.604C21.9162 4.044 21.8002 3.616 21.5682 3.32C21.3442 3.016 21.0082 2.864 20.5602 2.864C20.2002 2.864 19.9082 3.004 19.6842 3.284C19.4682 3.564 19.3602 3.936 19.3602 4.4C19.3602 4.984 19.4642 5.42 19.6722 5.708C19.8882 5.988 20.2162 6.128 20.6562 6.128ZM22.9722 3.14C22.8602 3.14 22.7282 3.136 22.5762 3.128C22.4242 3.12 22.2802 3.108 22.1442 3.092C22.0082 3.068 21.9002 3.04 21.8202 3.008L21.7362 2.852L23.4762 2.408C23.5162 2.456 23.5442 2.512 23.5602 2.576C23.5842 2.64 23.5962 2.696 23.5962 2.744C23.5962 3.008 23.3882 3.14 22.9722 3.14Z" fill="white" fill-opacity="0.5"/>
</svg>
