<svg width="344" height="180" viewBox="0 0 344 180" fill="none" xmlns="http://www.w3.org/2000/svg">
<mask id="mask0_5_7458" style="mask-type:alpha" maskUnits="userSpaceOnUse" x="27" y="29" width="283" height="151">
<path fill-rule="evenodd" clip-rule="evenodd" d="M309.564 176.128C309.564 177.423 309.548 178.713 309.516 180H262.621C262.872 177.143 263 174.251 263 171.328C263 118.079 220.467 74.9122 168 74.9122C115.533 74.9122 73 118.079 73 171.328C73 174.251 73.1282 177.143 73.3791 180H27.048C27.0161 178.713 27 177.423 27 176.128C27 94.8715 90.2541 29 168.282 29C246.31 29 309.564 94.8715 309.564 176.128Z" fill="#FF18E8" fill-opacity="0.73"/>
</mask>
<g mask="url(#mask0_5_7458)">
<rect x="15" y="20" width="307" height="160" fill="#4967AF" fill-opacity="0.6"/>
</g>
<path d="M4.368 178.168C3.668 178.168 3.05667 177.995 2.534 177.65C2.01133 177.295 1.60533 176.801 1.316 176.166C1.02667 175.522 0.882 174.775 0.882 173.926C0.882 173.198 0.98 172.526 1.176 171.91C1.38133 171.285 1.666 170.743 2.03 170.286C2.394 169.819 2.81867 169.46 3.304 169.208C3.79867 168.956 4.33533 168.83 4.914 168.83C5.614 168.83 6.22067 169.007 6.734 169.362C7.25667 169.707 7.658 170.197 7.938 170.832C8.22733 171.467 8.372 172.213 8.372 173.072C8.372 173.8 8.26933 174.477 8.064 175.102C7.868 175.718 7.588 176.259 7.224 176.726C6.86933 177.183 6.44933 177.538 5.964 177.79C5.47867 178.042 4.94667 178.168 4.368 178.168ZM4.662 177.496C5.14733 177.496 5.572 177.333 5.936 177.006C6.30933 176.67 6.59867 176.208 6.804 175.62C7.01867 175.032 7.126 174.346 7.126 173.562C7.126 172.255 6.91133 171.252 6.482 170.552C6.05267 169.852 5.42733 169.502 4.606 169.502C4.12067 169.502 3.69133 169.67 3.318 170.006C2.954 170.333 2.66933 170.79 2.464 171.378C2.25867 171.966 2.156 172.647 2.156 173.422C2.156 174.729 2.37067 175.737 2.8 176.446C3.22933 177.146 3.85 177.496 4.662 177.496Z" fill="white"/>
<path d="M318.05 178C317.929 177.944 317.84 177.869 317.784 177.776C317.728 177.673 317.7 177.533 317.7 177.356C319.24 176.161 320.369 175.079 321.088 174.108C321.807 173.128 322.166 172.176 322.166 171.252C322.166 170.655 322.021 170.202 321.732 169.894C321.452 169.586 321.037 169.432 320.486 169.432C319.795 169.432 319.179 169.693 318.638 170.216L318.806 169.698L318.68 171.182C318.671 171.275 318.619 171.345 318.526 171.392C318.442 171.429 318.316 171.448 318.148 171.448L317.91 169.614C318.843 169.091 319.739 168.83 320.598 168.83C321.466 168.83 322.152 169.049 322.656 169.488C323.169 169.917 323.426 170.501 323.426 171.238C323.426 171.835 323.23 172.484 322.838 173.184C322.455 173.884 321.891 174.607 321.144 175.354C320.397 176.091 319.492 176.838 318.428 177.594L318.274 177.146L323.23 177.44L322.726 177.566L323.118 175.704C323.361 175.704 323.538 175.779 323.65 175.928V178H318.05ZM328.901 178.168C328.201 178.168 327.59 177.995 327.067 177.65C326.545 177.295 326.139 176.801 325.849 176.166C325.56 175.522 325.415 174.775 325.415 173.926C325.415 173.198 325.513 172.526 325.709 171.91C325.915 171.285 326.199 170.743 326.563 170.286C326.927 169.819 327.352 169.46 327.837 169.208C328.332 168.956 328.869 168.83 329.447 168.83C330.147 168.83 330.754 169.007 331.267 169.362C331.79 169.707 332.191 170.197 332.471 170.832C332.761 171.467 332.905 172.213 332.905 173.072C332.905 173.8 332.803 174.477 332.597 175.102C332.401 175.718 332.121 176.259 331.757 176.726C331.403 177.183 330.983 177.538 330.497 177.79C330.012 178.042 329.48 178.168 328.901 178.168ZM329.195 177.496C329.681 177.496 330.105 177.333 330.469 177.006C330.843 176.67 331.132 176.208 331.337 175.62C331.552 175.032 331.659 174.346 331.659 173.562C331.659 172.255 331.445 171.252 331.015 170.552C330.586 169.852 329.961 169.502 329.139 169.502C328.654 169.502 328.225 169.67 327.851 170.006C327.487 170.333 327.203 170.79 326.997 171.378C326.792 171.966 326.689 172.647 326.689 173.422C326.689 174.729 326.904 175.737 327.333 176.446C327.763 177.146 328.383 177.496 329.195 177.496ZM338.171 178.168C337.471 178.168 336.859 177.995 336.337 177.65C335.814 177.295 335.408 176.801 335.119 176.166C334.829 175.522 334.685 174.775 334.685 173.926C334.685 173.198 334.783 172.526 334.979 171.91C335.184 171.285 335.469 170.743 335.833 170.286C336.197 169.819 336.621 169.46 337.107 169.208C337.601 168.956 338.138 168.83 338.717 168.83C339.417 168.83 340.023 169.007 340.537 169.362C341.059 169.707 341.461 170.197 341.741 170.832C342.03 171.467 342.175 172.213 342.175 173.072C342.175 173.8 342.072 174.477 341.867 175.102C341.671 175.718 341.391 176.259 341.027 176.726C340.672 177.183 340.252 177.538 339.767 177.79C339.281 178.042 338.749 178.168 338.171 178.168ZM338.465 177.496C338.95 177.496 339.375 177.333 339.739 177.006C340.112 176.67 340.401 176.208 340.607 175.62C340.821 175.032 340.929 174.346 340.929 173.562C340.929 172.255 340.714 171.252 340.285 170.552C339.855 169.852 339.23 169.502 338.409 169.502C337.923 169.502 337.494 169.67 337.121 170.006C336.757 170.333 336.472 170.79 336.267 171.378C336.061 171.966 335.959 172.647 335.959 173.422C335.959 174.729 336.173 175.737 336.603 176.446C337.032 177.146 337.653 177.496 338.465 177.496Z" fill="white"/>
<path d="M157.143 10C157.143 9.85067 157.162 9.734 157.199 9.65C157.236 9.566 157.292 9.51467 157.367 9.496L158.683 9.202L158.473 9.468V1.46L158.739 1.922L156.737 2.314C156.672 2.22067 156.639 2.10867 156.639 1.978C156.639 1.922 156.639 1.87067 156.639 1.824C156.648 1.77733 156.667 1.73067 156.695 1.684L159.117 0.83H159.621V9.454L159.369 9.174L160.909 9.482C160.909 9.60333 160.89 9.70133 160.853 9.776C160.825 9.85067 160.76 9.92533 160.657 10H157.143ZM165.792 10.168C165.092 10.168 164.48 9.99533 163.958 9.65C163.435 9.29533 163.029 8.80067 162.74 8.166C162.45 7.522 162.306 6.77533 162.306 5.926C162.306 5.198 162.404 4.526 162.6 3.91C162.805 3.28467 163.09 2.74333 163.454 2.286C163.818 1.81933 164.242 1.46 164.728 1.208C165.222 0.956 165.759 0.83 166.338 0.83C167.038 0.83 167.644 1.00733 168.158 1.362C168.68 1.70733 169.082 2.19733 169.362 2.832C169.651 3.46667 169.796 4.21333 169.796 5.072C169.796 5.8 169.693 6.47667 169.488 7.102C169.292 7.718 169.012 8.25933 168.648 8.726C168.293 9.18333 167.873 9.538 167.388 9.79C166.902 10.042 166.37 10.168 165.792 10.168ZM166.086 9.496C166.571 9.496 166.996 9.33267 167.36 9.006C167.733 8.67 168.022 8.208 168.228 7.62C168.442 7.032 168.55 6.346 168.55 5.562C168.55 4.25533 168.335 3.252 167.906 2.552C167.476 1.852 166.851 1.502 166.03 1.502C165.544 1.502 165.115 1.67 164.742 2.006C164.378 2.33267 164.093 2.79 163.888 3.378C163.682 3.966 163.58 4.64733 163.58 5.422C163.58 6.72867 163.794 7.73667 164.224 8.446C164.653 9.146 165.274 9.496 166.086 9.496ZM175.061 10.168C174.361 10.168 173.75 9.99533 173.227 9.65C172.705 9.29533 172.299 8.80067 172.009 8.166C171.72 7.522 171.575 6.77533 171.575 5.926C171.575 5.198 171.673 4.526 171.869 3.91C172.075 3.28467 172.359 2.74333 172.723 2.286C173.087 1.81933 173.512 1.46 173.997 1.208C174.492 0.956 175.029 0.83 175.607 0.83C176.307 0.83 176.914 1.00733 177.427 1.362C177.95 1.70733 178.351 2.19733 178.631 2.832C178.921 3.46667 179.065 4.21333 179.065 5.072C179.065 5.8 178.963 6.47667 178.757 7.102C178.561 7.718 178.281 8.25933 177.917 8.726C177.563 9.18333 177.143 9.538 176.657 9.79C176.172 10.042 175.64 10.168 175.061 10.168ZM175.355 9.496C175.841 9.496 176.265 9.33267 176.629 9.006C177.003 8.67 177.292 8.208 177.497 7.62C177.712 7.032 177.819 6.346 177.819 5.562C177.819 4.25533 177.605 3.252 177.175 2.552C176.746 1.852 176.121 1.502 175.299 1.502C174.814 1.502 174.385 1.67 174.011 2.006C173.647 2.33267 173.363 2.79 173.157 3.378C172.952 3.966 172.849 4.64733 172.849 5.422C172.849 6.72867 173.064 7.73667 173.493 8.446C173.923 9.146 174.543 9.496 175.355 9.496Z" fill="white"/>
<path d="M111.889 14.988C111.889 15.324 111.805 15.628 111.637 15.9C111.477 16.172 111.273 16.408 111.025 16.608C110.777 16.8 110.525 16.964 110.269 17.1L109.753 16.968C109.921 16.856 110.093 16.724 110.269 16.572C110.445 16.412 110.593 16.216 110.713 15.984C110.833 15.752 110.893 15.46 110.893 15.108C110.893 14.62 110.761 14.264 110.497 14.04C110.241 13.816 109.909 13.704 109.501 13.704C109.069 13.704 108.737 13.824 108.505 14.064C108.273 14.296 108.157 14.616 108.157 15.024C108.157 15.328 108.229 15.58 108.373 15.78C108.525 15.98 108.721 16.148 108.961 16.284C109.209 16.42 109.477 16.544 109.765 16.656C110.061 16.768 110.353 16.884 110.641 17.004C110.937 17.116 111.205 17.252 111.445 17.412C111.693 17.572 111.889 17.776 112.033 18.024C112.185 18.264 112.261 18.568 112.261 18.936C112.261 19.352 112.153 19.728 111.937 20.064C111.721 20.392 111.405 20.656 110.989 20.856C110.573 21.048 110.065 21.144 109.465 21.144C108.921 21.144 108.445 21.056 108.037 20.88C107.637 20.704 107.329 20.468 107.113 20.172C106.897 19.868 106.789 19.532 106.789 19.164C106.789 18.788 106.885 18.452 107.077 18.156C107.277 17.852 107.525 17.596 107.821 17.388C108.125 17.172 108.437 17.016 108.757 16.92L109.297 17.028C109.081 17.108 108.861 17.232 108.637 17.4C108.421 17.568 108.241 17.784 108.097 18.048C107.953 18.304 107.881 18.612 107.881 18.972C107.881 19.524 108.041 19.932 108.361 20.196C108.689 20.452 109.097 20.58 109.585 20.58C110.089 20.58 110.477 20.456 110.749 20.208C111.029 19.96 111.169 19.62 111.169 19.188C111.169 18.868 111.097 18.608 110.953 18.408C110.809 18.2 110.617 18.028 110.377 17.892C110.145 17.756 109.885 17.636 109.597 17.532C109.317 17.42 109.033 17.308 108.745 17.196C108.465 17.084 108.205 16.948 107.965 16.788C107.733 16.628 107.545 16.424 107.401 16.176C107.257 15.928 107.185 15.62 107.185 15.252C107.185 14.828 107.285 14.46 107.485 14.148C107.685 13.828 107.965 13.58 108.325 13.404C108.685 13.228 109.105 13.14 109.585 13.14C110.041 13.14 110.441 13.22 110.785 13.38C111.129 13.532 111.397 13.748 111.589 14.028C111.789 14.3 111.889 14.62 111.889 14.988ZM116.682 21.144C116.082 21.144 115.558 20.996 115.11 20.7C114.662 20.396 114.314 19.972 114.066 19.428C113.818 18.876 113.694 18.236 113.694 17.508C113.694 16.884 113.778 16.308 113.946 15.78C114.122 15.244 114.366 14.78 114.678 14.388C114.99 13.988 115.354 13.68 115.77 13.464C116.194 13.248 116.654 13.14 117.15 13.14C117.75 13.14 118.27 13.292 118.71 13.596C119.158 13.892 119.502 14.312 119.742 14.856C119.99 15.4 120.114 16.04 120.114 16.776C120.114 17.4 120.026 17.98 119.85 18.516C119.682 19.044 119.442 19.508 119.13 19.908C118.826 20.3 118.466 20.604 118.05 20.82C117.634 21.036 117.178 21.144 116.682 21.144ZM116.934 20.568C117.35 20.568 117.714 20.428 118.026 20.148C118.346 19.86 118.594 19.464 118.77 18.96C118.954 18.456 119.046 17.868 119.046 17.196C119.046 16.076 118.862 15.216 118.494 14.616C118.126 14.016 117.59 13.716 116.886 13.716C116.47 13.716 116.102 13.86 115.782 14.148C115.47 14.428 115.226 14.82 115.05 15.324C114.874 15.828 114.786 16.412 114.786 17.076C114.786 18.196 114.97 19.06 115.338 19.668C115.706 20.268 116.238 20.568 116.934 20.568Z" fill="white" fill-opacity="0.8"/>
<path d="M219.438 21C219.438 20.872 219.454 20.772 219.486 20.7C219.518 20.628 219.566 20.584 219.63 20.568L220.758 20.316L220.578 20.544V13.68L220.806 14.076L219.09 14.412C219.034 14.332 219.006 14.236 219.006 14.124C219.006 14.076 219.006 14.032 219.006 13.992C219.014 13.952 219.03 13.912 219.054 13.872L221.13 13.14H221.562V20.532L221.346 20.292L222.666 20.556C222.666 20.66 222.65 20.744 222.618 20.808C222.594 20.872 222.538 20.936 222.45 21H219.438ZM224.007 21C223.903 20.952 223.827 20.888 223.779 20.808C223.731 20.72 223.707 20.6 223.707 20.448C225.027 19.424 225.995 18.496 226.611 17.664C227.227 16.824 227.535 16.008 227.535 15.216C227.535 14.704 227.411 14.316 227.163 14.052C226.923 13.788 226.567 13.656 226.095 13.656C225.503 13.656 224.975 13.88 224.511 14.328L224.655 13.884L224.547 15.156C224.539 15.236 224.495 15.296 224.415 15.336C224.343 15.368 224.235 15.384 224.091 15.384L223.887 13.812C224.687 13.364 225.455 13.14 226.191 13.14C226.935 13.14 227.523 13.328 227.955 13.704C228.395 14.072 228.615 14.572 228.615 15.204C228.615 15.716 228.447 16.272 228.111 16.872C227.783 17.472 227.299 18.092 226.659 18.732C226.019 19.364 225.243 20.004 224.331 20.652L224.199 20.268L228.447 20.52L228.015 20.628L228.351 19.032C228.559 19.032 228.711 19.096 228.807 19.224V21H224.007ZM233.308 21.144C232.708 21.144 232.184 20.996 231.736 20.7C231.288 20.396 230.94 19.972 230.692 19.428C230.444 18.876 230.32 18.236 230.32 17.508C230.32 16.884 230.404 16.308 230.572 15.78C230.748 15.244 230.992 14.78 231.304 14.388C231.616 13.988 231.98 13.68 232.396 13.464C232.82 13.248 233.28 13.14 233.776 13.14C234.376 13.14 234.896 13.292 235.336 13.596C235.784 13.892 236.128 14.312 236.368 14.856C236.616 15.4 236.74 16.04 236.74 16.776C236.74 17.4 236.652 17.98 236.476 18.516C236.308 19.044 236.068 19.508 235.756 19.908C235.452 20.3 235.092 20.604 234.676 20.82C234.26 21.036 233.804 21.144 233.308 21.144ZM233.56 20.568C233.976 20.568 234.34 20.428 234.652 20.148C234.972 19.86 235.22 19.464 235.396 18.96C235.58 18.456 235.672 17.868 235.672 17.196C235.672 16.076 235.488 15.216 235.12 14.616C234.752 14.016 234.216 13.716 233.512 13.716C233.096 13.716 232.728 13.86 232.408 14.148C232.096 14.428 231.852 14.82 231.676 15.324C231.5 15.828 231.412 16.412 231.412 17.076C231.412 18.196 231.596 19.06 231.964 19.668C232.332 20.268 232.864 20.568 233.56 20.568Z" fill="white" fill-opacity="0.8"/>
<path d="M65.5933 43.144C65.0333 43.144 64.5413 43.004 64.1173 42.724C63.7013 42.436 63.3773 42.032 63.1453 41.512C62.9213 40.992 62.8093 40.38 62.8093 39.676C62.8093 38.988 62.8893 38.364 63.0493 37.804C63.2093 37.244 63.4373 36.768 63.7333 36.376C64.0373 35.976 64.3973 35.672 64.8133 35.464C65.2373 35.248 65.7093 35.14 66.2293 35.14C66.5653 35.14 66.8613 35.196 67.1173 35.308C67.3813 35.412 67.5893 35.556 67.7413 35.74C67.8933 35.916 67.9693 36.12 67.9693 36.352C67.9693 36.496 67.9293 36.608 67.8493 36.688C67.7773 36.768 67.6733 36.808 67.5373 36.808C67.4733 36.808 67.4053 36.8 67.3333 36.784C67.2693 36.76 67.2133 36.736 67.1653 36.712C67.1573 36.392 67.0573 36.144 66.8653 35.968C66.6733 35.784 66.4013 35.692 66.0493 35.692C65.3453 35.692 64.8093 36.004 64.4413 36.628C64.0813 37.252 63.9013 38.16 63.9013 39.352C63.9013 40.392 64.0573 41.192 64.3693 41.752C64.6893 42.304 65.1413 42.58 65.7253 42.58C66.2053 42.58 66.5853 42.416 66.8653 42.088C67.1533 41.752 67.2973 41.304 67.2973 40.744C67.2973 40.184 67.1573 39.74 66.8773 39.412C66.5973 39.084 66.2173 38.92 65.7373 38.92C65.5053 38.92 65.2533 38.968 64.9813 39.064C64.7093 39.16 64.4573 39.288 64.2253 39.448C64.0013 39.608 63.8293 39.78 63.7093 39.964L63.6853 39.4C63.8453 39.184 64.0573 38.992 64.3213 38.824C64.5853 38.656 64.8733 38.524 65.1853 38.428C65.4973 38.332 65.8053 38.284 66.1093 38.284C66.5573 38.284 66.9453 38.38 67.2733 38.572C67.6093 38.756 67.8693 39.016 68.0533 39.352C68.2453 39.688 68.3413 40.08 68.3413 40.528C68.3413 41.032 68.2213 41.48 67.9813 41.872C67.7493 42.264 67.4253 42.576 67.0093 42.808C66.6013 43.032 66.1293 43.144 65.5933 43.144ZM72.7694 43.144C72.1694 43.144 71.6454 42.996 71.1974 42.7C70.7494 42.396 70.4014 41.972 70.1534 41.428C69.9054 40.876 69.7814 40.236 69.7814 39.508C69.7814 38.884 69.8654 38.308 70.0334 37.78C70.2094 37.244 70.4534 36.78 70.7654 36.388C71.0774 35.988 71.4414 35.68 71.8574 35.464C72.2814 35.248 72.7414 35.14 73.2374 35.14C73.8374 35.14 74.3574 35.292 74.7974 35.596C75.2454 35.892 75.5894 36.312 75.8294 36.856C76.0774 37.4 76.2014 38.04 76.2014 38.776C76.2014 39.4 76.1134 39.98 75.9374 40.516C75.7694 41.044 75.5294 41.508 75.2174 41.908C74.9134 42.3 74.5534 42.604 74.1374 42.82C73.7214 43.036 73.2654 43.144 72.7694 43.144ZM73.0214 42.568C73.4374 42.568 73.8014 42.428 74.1134 42.148C74.4334 41.86 74.6814 41.464 74.8574 40.96C75.0414 40.456 75.1334 39.868 75.1334 39.196C75.1334 38.076 74.9494 37.216 74.5814 36.616C74.2134 36.016 73.6774 35.716 72.9734 35.716C72.5574 35.716 72.1894 35.86 71.8694 36.148C71.5574 36.428 71.3134 36.82 71.1374 37.324C70.9614 37.828 70.8734 38.412 70.8734 39.076C70.8734 40.196 71.0574 41.06 71.4254 41.668C71.7934 42.268 72.3254 42.568 73.0214 42.568Z" fill="white" fill-opacity="0.8"/>
<path d="M261.161 43C261.161 42.872 261.177 42.772 261.209 42.7C261.241 42.628 261.289 42.584 261.353 42.568L262.481 42.316L262.301 42.544V35.68L262.529 36.076L260.813 36.412C260.757 36.332 260.729 36.236 260.729 36.124C260.729 36.076 260.729 36.032 260.729 35.992C260.737 35.952 260.753 35.912 260.777 35.872L262.853 35.14H263.285V42.532L263.069 42.292L264.389 42.556C264.389 42.66 264.373 42.744 264.341 42.808C264.317 42.872 264.261 42.936 264.173 43H261.161ZM267.446 43C267.446 42.872 267.462 42.772 267.494 42.7C267.534 42.628 267.582 42.584 267.638 42.568L268.646 42.352L268.478 42.544V35.836L268.898 35.728L265.37 40.744L265.118 40.444H270.218V40.96H265.226C264.986 40.912 264.866 40.752 264.866 40.48L268.658 35.14C269.194 35.14 269.462 35.348 269.462 35.764V42.532L269.246 42.328L270.29 42.556C270.29 42.676 270.274 42.768 270.242 42.832C270.218 42.896 270.162 42.952 270.074 43H267.446ZM274.586 43.144C273.986 43.144 273.462 42.996 273.014 42.7C272.566 42.396 272.218 41.972 271.97 41.428C271.722 40.876 271.598 40.236 271.598 39.508C271.598 38.884 271.682 38.308 271.85 37.78C272.026 37.244 272.27 36.78 272.582 36.388C272.894 35.988 273.258 35.68 273.674 35.464C274.098 35.248 274.558 35.14 275.054 35.14C275.654 35.14 276.174 35.292 276.614 35.596C277.062 35.892 277.406 36.312 277.646 36.856C277.894 37.4 278.018 38.04 278.018 38.776C278.018 39.4 277.93 39.98 277.754 40.516C277.586 41.044 277.346 41.508 277.034 41.908C276.73 42.3 276.37 42.604 275.954 42.82C275.538 43.036 275.082 43.144 274.586 43.144ZM274.838 42.568C275.254 42.568 275.618 42.428 275.93 42.148C276.25 41.86 276.498 41.464 276.674 40.96C276.858 40.456 276.95 39.868 276.95 39.196C276.95 38.076 276.766 37.216 276.398 36.616C276.03 36.016 275.494 35.716 274.79 35.716C274.374 35.716 274.006 35.86 273.686 36.148C273.374 36.428 273.13 36.82 272.954 37.324C272.778 37.828 272.69 38.412 272.69 39.076C272.69 40.196 272.874 41.06 273.242 41.668C273.61 42.268 274.142 42.568 274.838 42.568Z" fill="white" fill-opacity="0.8"/>
<path d="M30.6375 76C30.6375 75.872 30.6535 75.772 30.6855 75.7C30.7255 75.628 30.7735 75.584 30.8295 75.568L31.8375 75.352L31.6695 75.544V68.836L32.0895 68.728L28.5615 73.744L28.3095 73.444H33.4095V73.96H28.4175C28.1775 73.912 28.0575 73.752 28.0575 73.48L31.8495 68.14C32.3855 68.14 32.6535 68.348 32.6535 68.764V75.532L32.4375 75.328L33.4815 75.556C33.4815 75.676 33.4655 75.768 33.4335 75.832C33.4095 75.896 33.3535 75.952 33.2655 76H30.6375ZM37.7772 76.144C37.1772 76.144 36.6532 75.996 36.2052 75.7C35.7572 75.396 35.4092 74.972 35.1612 74.428C34.9132 73.876 34.7892 73.236 34.7892 72.508C34.7892 71.884 34.8732 71.308 35.0412 70.78C35.2172 70.244 35.4612 69.78 35.7732 69.388C36.0852 68.988 36.4492 68.68 36.8652 68.464C37.2892 68.248 37.7492 68.14 38.2452 68.14C38.8452 68.14 39.3652 68.292 39.8052 68.596C40.2532 68.892 40.5972 69.312 40.8372 69.856C41.0852 70.4 41.2092 71.04 41.2092 71.776C41.2092 72.4 41.1212 72.98 40.9452 73.516C40.7772 74.044 40.5372 74.508 40.2252 74.908C39.9212 75.3 39.5612 75.604 39.1452 75.82C38.7292 76.036 38.2732 76.144 37.7772 76.144ZM38.0292 75.568C38.4452 75.568 38.8092 75.428 39.1212 75.148C39.4412 74.86 39.6892 74.464 39.8652 73.96C40.0492 73.456 40.1412 72.868 40.1412 72.196C40.1412 71.076 39.9572 70.216 39.5892 69.616C39.2212 69.016 38.6852 68.716 37.9812 68.716C37.5652 68.716 37.1972 68.86 36.8772 69.148C36.5652 69.428 36.3212 69.82 36.1452 70.324C35.9692 70.828 35.8812 71.412 35.8812 72.076C35.8812 73.196 36.0652 74.06 36.4332 74.668C36.8012 75.268 37.3332 75.568 38.0292 75.568Z" fill="white" fill-opacity="0.8"/>
<path d="M294.169 76C294.169 75.872 294.185 75.772 294.217 75.7C294.249 75.628 294.297 75.584 294.361 75.568L295.489 75.316L295.309 75.544V68.68L295.537 69.076L293.821 69.412C293.765 69.332 293.737 69.236 293.737 69.124C293.737 69.076 293.737 69.032 293.737 68.992C293.745 68.952 293.761 68.912 293.785 68.872L295.861 68.14H296.293V75.532L296.077 75.292L297.397 75.556C297.397 75.66 297.381 75.744 297.349 75.808C297.325 75.872 297.269 75.936 297.181 76H294.169ZM301.402 76.144C300.842 76.144 300.35 76.004 299.926 75.724C299.51 75.436 299.186 75.032 298.954 74.512C298.73 73.992 298.618 73.38 298.618 72.676C298.618 71.988 298.698 71.364 298.858 70.804C299.018 70.244 299.246 69.768 299.542 69.376C299.846 68.976 300.206 68.672 300.622 68.464C301.046 68.248 301.518 68.14 302.038 68.14C302.374 68.14 302.67 68.196 302.926 68.308C303.19 68.412 303.398 68.556 303.55 68.74C303.702 68.916 303.778 69.12 303.778 69.352C303.778 69.496 303.738 69.608 303.658 69.688C303.586 69.768 303.482 69.808 303.346 69.808C303.282 69.808 303.214 69.8 303.142 69.784C303.078 69.76 303.022 69.736 302.974 69.712C302.966 69.392 302.866 69.144 302.674 68.968C302.482 68.784 302.21 68.692 301.858 68.692C301.154 68.692 300.618 69.004 300.25 69.628C299.89 70.252 299.71 71.16 299.71 72.352C299.71 73.392 299.866 74.192 300.178 74.752C300.498 75.304 300.95 75.58 301.534 75.58C302.014 75.58 302.394 75.416 302.674 75.088C302.962 74.752 303.106 74.304 303.106 73.744C303.106 73.184 302.966 72.74 302.686 72.412C302.406 72.084 302.026 71.92 301.546 71.92C301.314 71.92 301.062 71.968 300.79 72.064C300.518 72.16 300.266 72.288 300.034 72.448C299.81 72.608 299.638 72.78 299.518 72.964L299.494 72.4C299.654 72.184 299.866 71.992 300.13 71.824C300.394 71.656 300.682 71.524 300.994 71.428C301.306 71.332 301.614 71.284 301.918 71.284C302.366 71.284 302.754 71.38 303.082 71.572C303.418 71.756 303.678 72.016 303.862 72.352C304.054 72.688 304.15 73.08 304.15 73.528C304.15 74.032 304.03 74.48 303.79 74.872C303.558 75.264 303.234 75.576 302.818 75.808C302.41 76.032 301.938 76.144 301.402 76.144ZM308.578 76.144C307.978 76.144 307.454 75.996 307.006 75.7C306.558 75.396 306.21 74.972 305.962 74.428C305.714 73.876 305.59 73.236 305.59 72.508C305.59 71.884 305.674 71.308 305.842 70.78C306.018 70.244 306.262 69.78 306.574 69.388C306.886 68.988 307.25 68.68 307.666 68.464C308.09 68.248 308.55 68.14 309.046 68.14C309.646 68.14 310.166 68.292 310.606 68.596C311.054 68.892 311.398 69.312 311.638 69.856C311.886 70.4 312.01 71.04 312.01 71.776C312.01 72.4 311.922 72.98 311.746 73.516C311.578 74.044 311.338 74.508 311.026 74.908C310.722 75.3 310.362 75.604 309.946 75.82C309.53 76.036 309.074 76.144 308.578 76.144ZM308.83 75.568C309.246 75.568 309.61 75.428 309.922 75.148C310.242 74.86 310.49 74.464 310.666 73.96C310.85 73.456 310.942 72.868 310.942 72.196C310.942 71.076 310.758 70.216 310.39 69.616C310.022 69.016 309.486 68.716 308.782 68.716C308.366 68.716 307.998 68.86 307.678 69.148C307.366 69.428 307.122 69.82 306.946 70.324C306.77 70.828 306.682 71.412 306.682 72.076C306.682 73.196 306.866 74.06 307.234 74.668C307.602 75.268 308.134 75.568 308.83 75.568Z" fill="white" fill-opacity="0.8"/>
<path d="M4.19883 120C4.09483 119.952 4.01883 119.888 3.97083 119.808C3.92283 119.72 3.89883 119.6 3.89883 119.448C5.21883 118.424 6.18683 117.496 6.80283 116.664C7.41883 115.824 7.72683 115.008 7.72683 114.216C7.72683 113.704 7.60283 113.316 7.35483 113.052C7.11483 112.788 6.75883 112.656 6.28683 112.656C5.69483 112.656 5.16683 112.88 4.70283 113.328L4.84683 112.884L4.73883 114.156C4.73083 114.236 4.68683 114.296 4.60683 114.336C4.53483 114.368 4.42683 114.384 4.28283 114.384L4.07883 112.812C4.87883 112.364 5.64683 112.14 6.38283 112.14C7.12683 112.14 7.71483 112.328 8.14683 112.704C8.58683 113.072 8.80683 113.572 8.80683 114.204C8.80683 114.716 8.63883 115.272 8.30283 115.872C7.97483 116.472 7.49083 117.092 6.85083 117.732C6.21083 118.364 5.43483 119.004 4.52283 119.652L4.39083 119.268L8.63883 119.52L8.20683 119.628L8.54283 118.032C8.75083 118.032 8.90283 118.096 8.99883 118.224V120H4.19883ZM13.4999 120.144C12.8999 120.144 12.3759 119.996 11.9279 119.7C11.4799 119.396 11.1319 118.972 10.8839 118.428C10.6359 117.876 10.5119 117.236 10.5119 116.508C10.5119 115.884 10.5959 115.308 10.7639 114.78C10.9399 114.244 11.1839 113.78 11.4959 113.388C11.8079 112.988 12.1719 112.68 12.5879 112.464C13.0119 112.248 13.4719 112.14 13.9679 112.14C14.5679 112.14 15.0879 112.292 15.5279 112.596C15.9759 112.892 16.3199 113.312 16.5599 113.856C16.8079 114.4 16.9319 115.04 16.9319 115.776C16.9319 116.4 16.8439 116.98 16.6679 117.516C16.4999 118.044 16.2599 118.508 15.9479 118.908C15.6439 119.3 15.2839 119.604 14.8679 119.82C14.4519 120.036 13.9959 120.144 13.4999 120.144ZM13.7519 119.568C14.1679 119.568 14.5319 119.428 14.8439 119.148C15.1639 118.86 15.4119 118.464 15.5879 117.96C15.7719 117.456 15.8639 116.868 15.8639 116.196C15.8639 115.076 15.6799 114.216 15.3119 113.616C14.9439 113.016 14.4079 112.716 13.7039 112.716C13.2879 112.716 12.9199 112.86 12.5999 113.148C12.2879 113.428 12.0439 113.82 11.8679 114.324C11.6919 114.828 11.6039 115.412 11.6039 116.076C11.6039 117.196 11.7879 118.06 12.1559 118.668C12.5239 119.268 13.0559 119.568 13.7519 119.568Z" fill="white" fill-opacity="0.8"/>
<path d="M318.257 120C318.257 119.872 318.273 119.772 318.305 119.7C318.337 119.628 318.385 119.584 318.449 119.568L319.577 119.316L319.397 119.544V112.68L319.625 113.076L317.909 113.412C317.853 113.332 317.825 113.236 317.825 113.124C317.825 113.076 317.825 113.032 317.825 112.992C317.833 112.952 317.849 112.912 317.873 112.872L319.949 112.14H320.381V119.532L320.165 119.292L321.485 119.556C321.485 119.66 321.469 119.744 321.437 119.808C321.413 119.872 321.357 119.936 321.269 120H318.257ZM327.698 113.988C327.698 114.324 327.614 114.628 327.446 114.9C327.286 115.172 327.082 115.408 326.834 115.608C326.586 115.8 326.334 115.964 326.078 116.1L325.562 115.968C325.73 115.856 325.902 115.724 326.078 115.572C326.254 115.412 326.402 115.216 326.522 114.984C326.642 114.752 326.702 114.46 326.702 114.108C326.702 113.62 326.57 113.264 326.306 113.04C326.05 112.816 325.718 112.704 325.31 112.704C324.878 112.704 324.546 112.824 324.314 113.064C324.082 113.296 323.966 113.616 323.966 114.024C323.966 114.328 324.038 114.58 324.182 114.78C324.334 114.98 324.53 115.148 324.77 115.284C325.018 115.42 325.286 115.544 325.574 115.656C325.87 115.768 326.162 115.884 326.45 116.004C326.746 116.116 327.014 116.252 327.254 116.412C327.502 116.572 327.698 116.776 327.842 117.024C327.994 117.264 328.07 117.568 328.07 117.936C328.07 118.352 327.962 118.728 327.746 119.064C327.53 119.392 327.214 119.656 326.798 119.856C326.382 120.048 325.874 120.144 325.274 120.144C324.73 120.144 324.254 120.056 323.846 119.88C323.446 119.704 323.138 119.468 322.922 119.172C322.706 118.868 322.598 118.532 322.598 118.164C322.598 117.788 322.694 117.452 322.886 117.156C323.086 116.852 323.334 116.596 323.63 116.388C323.934 116.172 324.246 116.016 324.566 115.92L325.106 116.028C324.89 116.108 324.67 116.232 324.446 116.4C324.23 116.568 324.05 116.784 323.906 117.048C323.762 117.304 323.69 117.612 323.69 117.972C323.69 118.524 323.85 118.932 324.17 119.196C324.498 119.452 324.906 119.58 325.394 119.58C325.898 119.58 326.286 119.456 326.558 119.208C326.838 118.96 326.978 118.62 326.978 118.188C326.978 117.868 326.906 117.608 326.762 117.408C326.618 117.2 326.426 117.028 326.186 116.892C325.954 116.756 325.694 116.636 325.406 116.532C325.126 116.42 324.842 116.308 324.554 116.196C324.274 116.084 324.014 115.948 323.774 115.788C323.542 115.628 323.354 115.424 323.21 115.176C323.066 114.928 322.994 114.62 322.994 114.252C322.994 113.828 323.094 113.46 323.294 113.148C323.494 112.828 323.774 112.58 324.134 112.404C324.494 112.228 324.914 112.14 325.394 112.14C325.85 112.14 326.25 112.22 326.594 112.38C326.938 112.532 327.206 112.748 327.398 113.028C327.598 113.3 327.698 113.62 327.698 113.988ZM332.49 120.144C331.89 120.144 331.366 119.996 330.918 119.7C330.47 119.396 330.122 118.972 329.874 118.428C329.626 117.876 329.502 117.236 329.502 116.508C329.502 115.884 329.586 115.308 329.754 114.78C329.93 114.244 330.174 113.78 330.486 113.388C330.798 112.988 331.162 112.68 331.578 112.464C332.002 112.248 332.462 112.14 332.958 112.14C333.558 112.14 334.078 112.292 334.518 112.596C334.966 112.892 335.31 113.312 335.55 113.856C335.798 114.4 335.922 115.04 335.922 115.776C335.922 116.4 335.834 116.98 335.658 117.516C335.49 118.044 335.25 118.508 334.938 118.908C334.634 119.3 334.274 119.604 333.858 119.82C333.442 120.036 332.986 120.144 332.49 120.144ZM332.742 119.568C333.158 119.568 333.522 119.428 333.834 119.148C334.154 118.86 334.402 118.464 334.578 117.96C334.762 117.456 334.854 116.868 334.854 116.196C334.854 115.076 334.67 114.216 334.302 113.616C333.934 113.016 333.398 112.716 332.694 112.716C332.278 112.716 331.91 112.86 331.59 113.148C331.278 113.428 331.034 113.82 330.858 114.324C330.682 114.828 330.594 115.412 330.594 116.076C330.594 117.196 330.778 118.06 331.146 118.668C331.514 119.268 332.046 119.568 332.742 119.568Z" fill="white" fill-opacity="0.8"/>
</svg>
